<?xml version="1.0" encoding="UTF-8" standalone="no"?>
<!DOCTYPE svg PUBLIC "-//W3C//DTD SVG 1.1//EN" "http://www.w3.org/Graphics/SVG/1.1/DTD/svg11.dtd">
<svg width="100%" height="100%" viewBox="0 0 229 200" version="1.1" xmlns="http://www.w3.org/2000/svg" xmlns:xlink="http://www.w3.org/1999/xlink" xml:space="preserve" xmlns:serif="http://www.serif.com/" style="fill-rule:evenodd;clip-rule:evenodd;stroke-linejoin:round;stroke-miterlimit:2;">
    <g transform="matrix(9.541761,0,0,9.548914,0.003207,-14.588506)">
        <path d="M0.102,9.629C0.347,7.934 2.241,2.65 7.556,1.649C10.693,1.057 14.561,2.683 17.276,5.437C15.922,6.366 15.017,7.169 14.332,8.145C14.843,10.037 16.35,10.808 17.41,11.129C16.235,10.418 15.493,9.748 15.034,8.317C17.547,5.329 20.239,4.363 20.466,4.339C22.568,6.016 24.052,9.074 23.998,12.294C23.936,16.022 21.908,19.863 19.583,21.415C19.265,21.566 18.53,21.165 18.43,20.728C18.906,19.623 20.031,16.933 20.17,14.922C20.301,12.994 19.024,11.861 17.951,13.255C16.462,15.749 15.812,18.847 15.162,22.189C14.067,22.502 12.21,22.581 11.406,22.153C11.305,20.085 11.787,16.552 10.415,15.313C9.827,14.78 9.246,15.028 8.853,15.518C7.861,16.745 7.881,19.932 8.073,21.997C6.964,22.683 5.083,22.54 3.894,22.114C3.417,18.869 2.297,14.912 1.382,11.884C1.122,13.17 1.008,14.481 1.042,15.792C0.431,15.294 -0.266,12.676 0.102,9.629Z" style="fill:rgb(37,125,174);fill-rule:nonzero;"/>
    </g>
</svg>
